<?xml version="1.0" standalone="no"?>
<!DOCTYPE svg PUBLIC "-//W3C//DTD SVG 20010904//EN"
 "http://www.w3.org/TR/2001/REC-SVG-20010904/DTD/svg10.dtd">
<svg version="1.0" xmlns="http://www.w3.org/2000/svg"
 width="132.000000pt" height="132.000000pt" viewBox="0 0 132.000000 132.000000"
 preserveAspectRatio="xMidYMid meet">
<metadata>
Created by potrace 1.14, written by Peter Selinger 2001-2017
</metadata>
<g transform="translate(0.000000,132.000000) scale(0.100000,-0.100000)"
fill="#000000" stroke="none">
<path d="M297 1148 c-91 -150 -277 -478 -277 -491 0 -7 11 -29 25 -49 14 -20
25 -39 25 -41 0 -3 36 -66 80 -142 44 -76 80 -139 80 -140 0 -1 24 -42 53 -91
l53 -89 325 0 324 0 157 270 c86 149 157 276 157 283 1 7 -49 99 -111 205 -61
105 -122 212 -136 237 -14 25 -36 62 -49 83 l-23 37 -319 0 -320 0 -44 -72z
m830 -220 l154 -267 -97 -168 c-53 -92 -108 -188 -122 -212 -14 -25 -38 -67
-53 -93 -16 -27 -29 -53 -29 -59 0 -6 -117 -8 -317 -7 l-316 3 -109 190 c-61
105 -120 208 -133 230 -12 22 -32 57 -44 77 l-23 37 108 188 c59 103 129 225
156 271 l50 82 310 -2 310 -3 155 -267z"/>
<path d="M610 1031 l-105 -26 -6 -38 -6 -38 68 -35 c38 -19 69 -38 69 -43 0
-9 -31 -25 -102 -54 -27 -12 -38 -23 -43 -47 -4 -17 -5 -33 -3 -35 2 -3 33 -5
68 -6 72 -2 100 -17 100 -56 0 -21 -4 -23 -54 -23 -47 0 -54 -3 -60 -22 -3
-13 -6 -26 -6 -29 0 -3 26 -5 58 -5 55 1 57 0 56 -24 -1 -14 -2 -28 -3 -31 0
-3 -26 -5 -56 -4 -52 2 -57 1 -70 -26 l-15 -28 72 -3 73 -3 -2 -98 c-2 -108 1
-112 59 -77 32 19 33 22 34 90 1 38 2 75 3 80 1 6 16 10 35 10 28 0 36 5 44
28 l10 28 -46 0 c-43 -1 -46 1 -46 24 -1 23 4 25 46 28 41 3 48 6 57 33 l10
29 -55 0 c-36 0 -54 4 -55 13 -1 6 -2 23 -3 37 -3 57 -34 89 -84 90 -9 1 4 12
29 25 67 35 75 48 47 75 -13 12 -43 32 -68 45 -48 25 -48 24 25 47 38 12 40
16 43 56 2 23 0 42 -5 41 -4 0 -55 -13 -113 -28z"/>
</g>
</svg>
